<?xml version="1.0" encoding="utf-8"?>
<!-- Generator: Adobe Illustrator 22.0.0, SVG Export Plug-In . SVG Version: 6.00 Build 0)  -->
<svg version="1.1" id="Layer_1" xmlns="http://www.w3.org/2000/svg" xmlns:xlink="http://www.w3.org/1999/xlink" x="0px" y="0px"
	 viewBox="0 0 397.9 161.7" style="enable-background:new 0 0 397.9 161.7;" xml:space="preserve">
<style type="text/css">
	.st0{fill:#112970;}
	.st1{clip-path:url(#SVGID_2_);fill:#112970;}
	.st2{fill:#EF4136;}
</style>
<g>
	<path class="st0" d="M48.2,51.9h5.2V40.4c0-1.4-1.2-2.6-2.6-2.6l0,0c-1.4,0-2.6,1.2-2.6,2.6V51.9L48.2,51.9z"/>
	<path class="st0" d="M37.1,51.9h5.2V40.4c0-1.4-1.2-2.6-2.6-2.6l0,0c-1.4,0-2.6,1.2-2.6,2.6V51.9L37.1,51.9z"/>
	<path class="st0" d="M59.2,51.9h5.2V40.4c0-1.4-1.2-2.6-2.6-2.6l0,0c-1.4,0-2.6,1.2-2.6,2.6V51.9L59.2,51.9z"/>
	<path class="st0" d="M52.1,9.5c3.5,0.6,4.8,3.7,4.8,5.8v4.5h3.2v2.5C68.5,26.3,74.4,35,74.4,44c0,0.1,0,0.1,0,0.2v7.7h19.3V44l0,0
		C93.3,18.6,75.3,3.1,51.4,2.8L52.1,9.5L52.1,9.5z"/>
	<g>
		<defs>
			<rect id="SVGID_1_" x="3.5" y="2.8" width="389.2" height="156.7"/>
		</defs>
		<clipPath id="SVGID_2_">
			<use xlink:href="#SVGID_1_"  style="overflow:visible;"/>
		</clipPath>
		<path class="st1" d="M48.5,15.2v4.6h4.7v-4.6c0-1.3-1.1-2.4-2.4-2.4C49.5,12.8,48.5,13.9,48.5,15.2L48.5,15.2z"/>
		<path class="st1" d="M54.4,64.2c-20-5.1-27.4-9.5-27.4-22.1c0-9.1,6.1-16.9,14.6-20.2v-2.1h3.2v-4.5c0-2.2,1.3-5.3,4.9-5.8
			l0.7-6.7C26.3,3,5.8,19.7,6.8,42.1c1.1,25.1,28.6,32.2,43.5,35.3C61.9,79.9,90,86.5,97,106.3C97,106.3,99.6,73.6,54.4,64.2
			L54.4,64.2z"/>
		<path class="st1" d="M47.7,99.1c20.1,6.1,25.3,13.6,25.3,24.2c0,16.2-12.5,22.8-28.2,22.8c-15,0-28-7-36.6-16.1
			c0,0-3.2,6.6-3.2,6.6c6.3,12,24.1,22.9,44,22.9c0,0,0,0,0,0c0,0,0,0,0,0v0c25.4,0.2,47.1-11.7,47.1-35.7
			C96.1,98.1,68,88,52.4,84.6C40.2,81.8,9.3,73.7,3.8,56.4C3.8,56.4-2.4,86.4,47.7,99.1L47.7,99.1z"/>
	</g>
	<path class="st2" d="M125.1,38.7c0,0,3.4,3.2,7.9,3.2c2.4,0,4.6-1.2,4.6-3.7c0-5.4-15-4.5-15-13.9c0-5.1,4.6-8.8,10.6-8.8
		c6.3,0,9.5,3.3,9.5,3.3l-2.5,4.5c0,0-3-2.7-7-2.7c-2.7,0-4.8,1.5-4.8,3.6c0,5.4,14.9,4.1,14.9,13.8c0,4.8-3.8,8.9-10.5,8.9
		c-7.1,0-10.9-4.2-10.9-4.2L125.1,38.7L125.1,38.7z"/>
	<path class="st2" d="M167.8,42c5.8,0,10.5-4.6,10.5-10.9c0-6-4.6-10.5-10.5-10.5c-5.8,0-10.5,4.5-10.5,10.5
		C157.3,37.4,161.9,42,167.8,42L167.8,42z M167.8,15.6c9.3,0,16.4,6.8,16.4,15.5c0,9-7.1,16-16.4,16c-9.3,0-16.4-7-16.4-16
		C151.4,22.4,158.4,15.6,167.8,15.6L167.8,15.6z"/>
	<path class="st2" d="M204.4,30.4c3.1,0,5-1.8,5-4.8c0-2.9-1.3-4.7-5.8-4.7h-4.4v9.5H204.4L204.4,30.4z M193.4,16.1h10.2
		c3.4,0,5,0.3,6.4,0.9c3.2,1.4,5.2,4.3,5.2,8.3c0,3.6-2,7-5.4,8.3v0.1c0,0,0.4,0.4,1.1,1.5l6.5,11.4H211l-6.3-11.4h-5.5v11.4h-5.8
		V16.1L193.4,16.1z"/>
	<path class="st2" d="M237.6,41.8c2.9,0,4.6-1.8,4.6-4.4c0-2.5-1.7-4.4-4.6-4.4h-6.2v8.8H237.6L237.6,41.8z M237,28.5
		c2.5,0,3.9-1.7,3.9-3.9c0-2.2-1.3-3.8-4-3.8h-5.5v7.7H237L237,28.5z M225.6,16.1H237c5.7,0,9.8,2.8,9.8,7.9c0,2.8-1.4,5.3-3.8,6.5
		v0.1c3.5,1,5.1,4.1,5.1,7.2c0,6.1-5.1,8.8-10.9,8.8h-11.5V16.1L225.6,16.1z"/>
	<path class="st2" d="M272,42c5.8,0,10.5-4.6,10.5-10.9c0-6-4.6-10.5-10.5-10.5c-5.8,0-10.5,4.5-10.5,10.5
		C261.5,37.4,266.1,42,272,42L272,42z M272,15.6c9.3,0,16.4,6.8,16.4,15.5c0,9-7.1,16-16.4,16c-9.3,0-16.4-7-16.4-16
		C255.6,22.4,262.6,15.6,272,15.6L272,15.6z"/>
	<path class="st2" d="M298.2,16.1h5.8l12,17.6c1.2,1.8,2.6,4.7,2.6,4.7h0.1c0,0-0.3-2.9-0.3-4.7V16.1h5.7v30.5h-5.7l-12-17.5
		c-1.2-1.8-2.6-4.7-2.6-4.7h-0.1c0,0,0.3,2.9,0.3,4.7v17.5h-5.8V16.1L298.2,16.1z"/>
	<path class="st2" d="M335.6,16.1h5.8l12,17.6c1.2,1.8,2.6,4.7,2.6,4.7h0.1c0,0-0.3-2.9-0.3-4.7V16.1h5.7v30.5h-5.7l-12-17.5
		c-1.2-1.8-2.6-4.7-2.6-4.7H341c0,0,0.3,2.9,0.3,4.7v17.5h-5.8V16.1L335.6,16.1z"/>
	<polygon class="st2" points="373,16.1 392,16.1 392,20.8 378.8,20.8 378.8,28.8 389.4,28.8 389.4,33.6 378.8,33.6 378.8,41.8 
		392.7,41.8 392.7,46.5 373,46.5 373,16.1 	"/>
	<path class="st2" d="M122.5,59.9h5.8v19.7c0,4.1,2.8,6.5,7.1,6.5c4.3,0,7.1-2.3,7.1-6.5V59.9h5.8v19.7c0,6.9-5.2,11.6-12.9,11.6
		c-7.8,0-12.9-4.7-12.9-11.6V59.9L122.5,59.9z"/>
	<path class="st2" d="M158,60.2h5.8l12,17.6c1.2,1.8,2.6,4.7,2.6,4.7h0.1c0,0-0.3-2.9-0.3-4.7V60.2h5.7v30.5h-5.7l-12-17.5
		c-1.2-1.8-2.6-4.7-2.6-4.7h-0.1c0,0,0.3,2.9,0.3,4.7v17.5H158V60.2L158,60.2z"/>
	<polygon class="st2" points="194.2,60.2 199.9,60.2 199.9,90.7 194.2,90.7 194.2,60.2 	"/>
	<path class="st2" d="M206.1,60.2h6.2l7,19.9c0.6,1.8,1.2,4.5,1.2,4.5h0.1c0,0,0.6-2.7,1.2-4.5l7-19.9h6.2l-11.6,30.5h-5.7
		L206.1,60.2L206.1,60.2z"/>
	<polygon class="st2" points="241.2,60.2 260.2,60.2 260.2,65 247,65 247,73 257.7,73 257.7,77.7 247,77.7 247,85.9 260.9,85.9 
		260.9,90.7 241.2,90.7 241.2,60.2 	"/>
	<path class="st2" d="M280.1,74.5c3.1,0,5-1.8,5-4.8c0-2.9-1.3-4.7-5.8-4.7h-4.4v9.5H280.1L280.1,74.5z M269.2,60.2h10.2
		c3.4,0,5,0.3,6.4,0.9c3.2,1.4,5.2,4.3,5.2,8.3c0,3.6-2,7-5.4,8.3v0.1c0,0,0.4,0.4,1.1,1.5l6.5,11.4h-6.4l-6.3-11.4h-5.5v11.4h-5.8
		V60.2L269.2,60.2z"/>
	<path class="st2" d="M301.5,82.9c0,0,3.4,3.2,7.9,3.2c2.4,0,4.6-1.2,4.6-3.7c0-5.5-15-4.5-15-13.9c0-5.1,4.6-8.8,10.6-8.8
		c6.3,0,9.5,3.3,9.5,3.3l-2.5,4.5c0,0-3-2.7-7-2.7c-2.7,0-4.8,1.5-4.8,3.6c0,5.4,14.9,4.1,14.9,13.8c0,4.8-3.8,8.9-10.5,8.9
		c-7.1,0-10.9-4.2-10.9-4.2L301.5,82.9L301.5,82.9z"/>
	<polygon class="st2" points="327.8,60.2 333.6,60.2 333.6,90.7 327.8,90.7 327.8,60.2 	"/>
	<polygon class="st2" points="350.4,65 340,65 340,60.2 366.6,60.2 366.6,65 356.2,65 356.2,90.7 350.4,90.7 350.4,65 	"/>
	<path class="st2" d="M383.9,52.4h5.9l-4.7,5.8h-4.6L383.9,52.4L383.9,52.4z M373,60.2h19V65h-13.2v8h10.7v4.8h-10.7v8.2h13.9v4.8
		H373V60.2L373,60.2z"/>
	<path class="st0" d="M129.6,111c3.1,0,4.7,1.7,4.7,1.7l-1.1,1.7c0,0-1.4-1.3-3.5-1.3c-2.7,0-4.3,2-4.3,4.4c0,2.4,1.6,4.5,4.3,4.5
		c2.2,0,3.7-1.6,3.7-1.6l1.2,1.7c0,0-1.8,2.1-5,2.1c-3.9,0-6.6-2.9-6.6-6.6C123,113.8,125.8,111,129.6,111L129.6,111z"/>
	<path class="st0" d="M145,117.1c1.2,0,2-0.7,2-2c0-1.2-0.5-2-2.3-2h-1.8v4H145L145,117.1z M140.6,111.2h4.1c1.4,0,2,0.1,2.6,0.4
		c1.3,0.6,2.1,1.8,2.1,3.5c0,1.5-0.8,2.9-2.1,3.5v0c0,0,0.2,0.2,0.4,0.6l2.6,4.7h-2.6l-2.5-4.7h-2.2v4.7h-2.3V111.2L140.6,111.2z"/>
	<path class="st0" d="M160.6,107.9h2.3l-1.9,2.4h-1.8L160.6,107.9L160.6,107.9z M156.2,111.2h7.6v2h-5.3v3.3h4.3v2h-4.3v3.4h5.6v2
		h-7.9V111.2L156.2,111.2z"/>
	<path class="st0" d="M174.4,113.4c0,0-0.3,1.3-0.5,2l-1.1,3.4h3.3l-1.1-3.4C174.7,114.6,174.5,113.4,174.4,113.4L174.4,113.4
		L174.4,113.4z M176.7,120.6h-4.5l-1.1,3.3h-2.4l4.5-12.7h2.4l4.5,12.7h-2.4L176.7,120.6L176.7,120.6z"/>
	<polygon class="st0" points="187.5,113.2 183.3,113.2 183.3,111.2 194,111.2 194,113.2 189.8,113.2 189.8,123.9 187.5,123.9 
		187.5,113.2 	"/>
	<polygon class="st0" points="199.5,111.2 207.1,111.2 207.1,113.2 201.8,113.2 201.8,116.5 206.1,116.5 206.1,118.5 201.8,118.5 
		201.8,121.9 207.4,121.9 207.4,123.9 199.5,123.9 199.5,111.2 	"/>
	<path class="st0" d="M213.4,111.2h2.3v8.1c0,1.7,1.1,2.7,2.8,2.7c1.7,0,2.8-1,2.8-2.7v-8.1h2.3v8.1c0,2.8-2.1,4.8-5.1,4.8
		c-3.1,0-5.1-1.9-5.1-4.8V111.2L213.4,111.2z"/>
	<path class="st0" d="M235,117.1c1.2,0,2-0.7,2-2c0-1.2-0.5-2-2.3-2h-1.8v4H235L235,117.1z M230.6,111.2h4.1c1.4,0,2,0.1,2.6,0.4
		c1.3,0.6,2.1,1.8,2.1,3.5c0,1.5-0.8,2.9-2.1,3.5v0c0,0,0.2,0.2,0.4,0.6l2.6,4.7h-2.6l-2.5-4.7h-2.2v4.7h-2.3V111.2L230.6,111.2z"/>
	<path class="st0" d="M246.5,120.6c0,0,1.4,1.3,3.2,1.3c1,0,1.8-0.5,1.8-1.5c0-2.3-6-1.9-6-5.8c0-2.1,1.8-3.7,4.3-3.7
		c2.5,0,3.8,1.4,3.8,1.4l-1,1.9c0,0-1.2-1.1-2.8-1.1c-1.1,0-1.9,0.6-1.9,1.5c0,2.3,6,1.7,6,5.8c0,2-1.5,3.7-4.2,3.7
		c-2.8,0-4.4-1.7-4.4-1.7L246.5,120.6L246.5,120.6z"/>
	<path class="st0" d="M272.4,121.9c2.6,0,4.2-1.5,4.2-4.4c0-2.8-1.7-4.3-4.2-4.3h-1.9v8.7H272.4L272.4,121.9z M268.2,111.2h4.3
		c3.9,0,6.5,2.3,6.5,6.3c0,4-2.6,6.4-6.5,6.4h-4.3V111.2L268.2,111.2z"/>
	<polygon class="st0" points="285.2,111.2 292.8,111.2 292.8,113.2 287.5,113.2 287.5,116.5 291.8,116.5 291.8,118.5 287.5,118.5 
		287.5,121.9 293.1,121.9 293.1,123.9 285.2,123.9 285.2,111.2 	"/>
	<polygon class="st0" points="307.6,111.2 314.9,111.2 314.9,113.2 309.9,113.2 309.9,116.8 314.1,116.8 314.1,118.7 309.9,118.7 
		309.9,123.9 307.6,123.9 307.6,111.2 	"/>
	<path class="st0" d="M320.7,111.2h2.3v8.1c0,1.7,1.1,2.7,2.8,2.7c1.7,0,2.8-1,2.8-2.7v-8.1h2.3v8.1c0,2.8-2.1,4.8-5.1,4.8
		c-3.1,0-5.1-1.9-5.1-4.8V111.2L320.7,111.2z"/>
	<polygon class="st0" points="340.5,113.2 336.3,113.2 336.3,111.2 347,111.2 347,113.2 342.8,113.2 342.8,123.9 340.5,123.9 
		340.5,113.2 	"/>
	<path class="st0" d="M352.3,111.2h2.3v8.1c0,1.7,1.1,2.7,2.8,2.7c1.7,0,2.8-1,2.8-2.7v-8.1h2.3v8.1c0,2.8-2.1,4.8-5.1,4.8
		c-3.1,0-5.1-1.9-5.1-4.8V111.2L352.3,111.2z"/>
	<path class="st0" d="M373.8,117.1c1.2,0,2-0.7,2-2c0-1.2-0.5-2-2.3-2h-1.8v4H373.8L373.8,117.1z M369.4,111.2h4.1
		c1.4,0,2,0.1,2.6,0.4c1.3,0.6,2.1,1.8,2.1,3.5c0,1.5-0.8,2.9-2.1,3.5v0c0,0,0.2,0.2,0.4,0.6l2.6,4.7h-2.6l-2.5-4.7h-2.2v4.7h-2.3
		V111.2L369.4,111.2z"/>
	<path class="st0" d="M385.4,120.6c0,0,1.4,1.3,3.2,1.3c1,0,1.8-0.5,1.8-1.5c0-2.3-6-1.9-6-5.8c0-2.1,1.8-3.7,4.3-3.7
		c2.5,0,3.8,1.4,3.8,1.4l-1,1.9c0,0-1.2-1.1-2.8-1.1c-1.1,0-1.9,0.6-1.9,1.5c0,2.3,6,1.7,6,5.8c0,2-1.5,3.7-4.2,3.7
		c-2.8,0-4.4-1.7-4.4-1.7L385.4,120.6L385.4,120.6z"/>
	<path class="st0" d="M128.1,145.1c2.6,0,4.2-1.5,4.2-4.4c0-2.8-1.7-4.3-4.2-4.3h-1.9v8.7H128.1L128.1,145.1z M123.9,134.4h4.3
		c3.9,0,6.5,2.3,6.5,6.3c0,4-2.6,6.4-6.5,6.4h-4.3V134.4L123.9,134.4z"/>
	<polygon class="st0" points="141,134.4 148.6,134.4 148.6,136.4 143.3,136.4 143.3,139.7 147.6,139.7 147.6,141.7 143.3,141.7 
		143.3,145.1 148.9,145.1 148.9,147.1 141,147.1 141,134.4 	"/>
	<path class="st0" d="M159.6,140.7c1.3,0,2.1-0.9,2.1-2.2c0-1.3-0.8-2.1-2.1-2.1h-2.2v4.3H159.6L159.6,140.7z M155.1,134.4h4.9
		c2.4,0,4,1.7,4,4.1c0,2.5-1.7,4.2-4,4.2h-2.6v4.4h-2.3V134.4L155.1,134.4z"/>
	<path class="st0" d="M169.8,134.4h2.3v8.1c0,1.7,1.1,2.7,2.8,2.7c1.7,0,2.8-1,2.8-2.7v-8.1h2.3v8.1c0,2.8-2.1,4.8-5.1,4.8
		c-3.1,0-5.1-1.9-5.1-4.8V134.4L169.8,134.4z"/>
	<polygon class="st0" points="186.9,134.4 189.2,134.4 189.2,147.1 186.9,147.1 186.9,134.4 	"/>
	<path class="st0" d="M196.6,143.9c0,0,1.4,1.3,3.2,1.3c1,0,1.8-0.5,1.8-1.5c0-2.3-6-1.9-6-5.8c0-2.1,1.8-3.7,4.3-3.7
		c2.5,0,3.8,1.4,3.8,1.4l-1,1.9c0,0-1.2-1.1-2.8-1.1c-1.1,0-1.9,0.6-1.9,1.5c0,2.3,6,1.7,6,5.8c0,2-1.5,3.7-4.2,3.7
		c-2.8,0-4.4-1.7-4.4-1.7L196.6,143.9L196.6,143.9z"/>
	<path class="st0" d="M217.6,145.1h2.8v-7.1c0-0.4,0-0.9,0-0.9h0c0,0-0.1,0.3-0.6,0.7l-1,1l-1.4-1.4l3.2-3.1h2v10.7h2.8v2h-7.8
		V145.1L217.6,145.1z"/>
	<path class="st0" d="M230.6,146c0-4.6,5.9-5.3,5.9-7.8c0-1.1-0.9-1.8-1.9-1.8c-1.5,0-2.3,1.5-2.3,1.5l-1.7-1.1c0,0,1.2-2.5,4.2-2.5
		c2.2,0,4.1,1.4,4.1,3.8c0,4.1-5.7,4.8-5.7,7.2h5.9v2h-8.4C230.6,146.7,230.6,146.4,230.6,146L230.6,146z"/>
	<path class="st0" d="M245.8,143.9c0,0,1.1,1.3,2.7,1.3c1.2,0,2.4-0.8,2.4-2.2c0-1.3-1.1-2.2-2.6-2.2c-1.1,0-2,0.5-2,0.5l-1.3-0.5
		l0.6-6.4h6.7v2h-4.7l-0.2,2.1c0,0.3-0.1,0.6-0.1,0.6h0c0,0,0.6-0.3,1.4-0.3c2.8,0,4.5,1.9,4.5,4.2c0,2.5-1.9,4.4-4.6,4.4
		c-2.7,0-4.1-1.7-4.1-1.7L245.8,143.9L245.8,143.9z"/>
	<path class="st0" d="M264.1,137.6c0.4-0.8,0.8-1.2,0.8-1.2v0c0,0-0.3,0-0.9,0h-5.4v-2h8.7v1.6l-5.6,11.1h-2.4L264.1,137.6
		L264.1,137.6z"/>
</g>
</svg>
