<?xml version="1.0" encoding="utf-8"?>
<!-- Generator: Adobe Illustrator 17.1.0, SVG Export Plug-In . SVG Version: 6.00 Build 0)  -->
<svg version="1.2" baseProfile="tiny" id="logo" xmlns="http://www.w3.org/2000/svg" xmlns:xlink="http://www.w3.org/1999/xlink"
	 x="0px" y="0px" viewBox="364.286 0 230.795 283.975" xml:space="preserve">
<polygon fill="#172645" points="393.582,283.975 365.103,283.975 365.103,211.482 372.871,211.482 372.871,276.207 393.582,276.207 
	"/>
<polygon fill="#172645" points="491.118,283.975 483.352,283.975 483.352,228.88 469.682,278.796 466.367,278.796 453.009,228.88 
	453.009,283.975 445.241,283.975 445.241,211.482 455.701,211.482 468.026,257.256 480.66,211.482 491.118,211.482 "/>
<polygon fill="#172645" points="549.854,283.975 542.086,283.975 542.086,228.88 528.416,278.796 525.1,278.796 511.742,228.88 
	511.742,283.975 503.974,283.975 503.974,211.482 514.434,211.482 526.759,257.256 539.393,211.482 549.854,211.482 "/>
<polygon fill="#172645" points="591.189,283.975 562.709,283.975 562.709,211.482 591.189,211.482 591.189,219.248 570.475,219.248 
	570.475,241.72 586.009,241.72 586.009,249.488 570.475,249.488 570.475,276.207 591.189,276.207 "/>
<path fill="#172645" d="M433.807,283.975h-7.042v-3.936c-0.621,2.383-2.9,3.936-6.111,3.936h-6.109
	c-5.074,0-9.528-4.245-9.528-9.321v-10.357c0-5.489,4.038-9.321,9.321-9.321h6.317c3.211,0,5.489,1.555,6.111,3.936v-14.291
	c0-1.555-0.725-2.279-2.279-2.279h-15.949v-7.042h15.949c5.281,0,9.321,4.245,9.321,9.321
	C433.807,244.622,433.807,283.975,433.807,283.975z"/>
<path fill="#F49819" d="M426.765,264.297c0-1.449-0.725-2.277-2.279-2.277h-10.045c-1.553,0-2.279,0.828-2.279,2.277v10.357
	c0,1.553,0.725,2.277,2.279,2.277h10.045c1.553,0,2.279-0.724,2.279-2.277C426.765,274.654,426.765,264.297,426.765,264.297z"/>
<path fill="#172645" d="M379.707,178.512c0-1.449-0.725-2.277-2.279-2.277h-10.045c-1.553,0-2.279,0.828-2.279,2.277v10.357
	c0,1.553,0.725,2.277,2.279,2.277h10.045c1.553,0,2.279-0.725,2.279-2.277V178.512z"/>
<path fill="#E6292F" d="M414.954,178.512c0-1.449-0.725-2.277-2.279-2.277h-10.045c-1.553,0-2.279,0.828-2.279,2.277v10.357
	c0,1.553,0.725,2.277,2.279,2.277h10.045c1.553,0,2.279-0.725,2.279-2.277C414.954,188.869,414.954,178.512,414.954,178.512z"/>
<path fill="#008682" d="M450.201,178.512c0-1.449-0.725-2.277-2.279-2.277h-10.045c-1.553,0-2.279,0.828-2.279,2.277v10.357
	c0,1.553,0.725,2.277,2.279,2.277h10.045c1.553,0,2.279-0.725,2.279-2.277V178.512z"/>
<path fill="#172645" d="M485.448,178.512c0-1.449-0.725-2.277-2.279-2.277h-10.045c-1.553,0-2.279,0.828-2.279,2.277v10.357
	c0,1.553,0.725,2.277,2.279,2.277h10.045c1.553,0,2.279-0.725,2.279-2.277V178.512z"/>
<path fill="#008682" d="M520.695,178.512c0-1.449-0.724-2.277-2.279-2.277H508.37c-1.553,0-2.279,0.828-2.279,2.277v10.357
	c0,1.553,0.725,2.277,2.279,2.277h10.045c1.553,0,2.279-0.725,2.279-2.277V178.512z"/>
<path fill="#172645" d="M555.942,178.512c0-1.449-0.725-2.277-2.279-2.277h-10.045c-1.553,0-2.279,0.828-2.279,2.277v10.357
	c0,1.553,0.724,2.277,2.279,2.277h10.045c1.553,0,2.279-0.725,2.279-2.277V178.512z"/>
<path fill="#008682" d="M591.189,178.512c0-1.449-0.725-2.277-2.279-2.277h-10.045c-1.553,0-2.279,0.828-2.279,2.277v10.357
	c0,1.553,0.725,2.277,2.279,2.277h10.045c1.553,0,2.279-0.725,2.279-2.277V178.512z"/>
<path fill="#F49819" d="M379.707,143.265c0-1.449-0.725-2.277-2.279-2.277h-10.045c-1.553,0-2.279,0.828-2.279,2.277v10.357
	c0,1.553,0.725,2.277,2.279,2.277h10.045c1.553,0,2.279-0.725,2.279-2.277V143.265z"/>
<path fill="#172645" d="M414.954,143.265c0-1.449-0.725-2.277-2.279-2.277h-10.045c-1.553,0-2.279,0.828-2.279,2.277v10.357
	c0,1.553,0.725,2.277,2.279,2.277h10.045c1.553,0,2.279-0.725,2.279-2.277C414.954,153.622,414.954,143.265,414.954,143.265z"/>
<path fill="#172645" d="M450.201,143.265c0-1.449-0.725-2.277-2.279-2.277h-10.045c-1.553,0-2.279,0.828-2.279,2.277v10.357
	c0,1.553,0.725,2.277,2.279,2.277h10.045c1.553,0,2.279-0.725,2.279-2.277V143.265z"/>
<path fill="#172645" d="M485.448,143.265c0-1.449-0.725-2.277-2.279-2.277h-10.045c-1.553,0-2.279,0.828-2.279,2.277v10.357
	c0,1.553,0.725,2.277,2.279,2.277h10.045c1.553,0,2.279-0.725,2.279-2.277V143.265z"/>
<path fill="#E6292F" d="M520.695,143.265c0-1.449-0.724-2.277-2.279-2.277H508.37c-1.553,0-2.279,0.828-2.279,2.277v10.357
	c0,1.553,0.725,2.277,2.279,2.277h10.045c1.553,0,2.279-0.725,2.279-2.277V143.265z"/>
<path fill="#E6292F" d="M555.942,143.265c0-1.449-0.725-2.277-2.279-2.277h-10.045c-1.553,0-2.279,0.828-2.279,2.277v10.357
	c0,1.553,0.724,2.277,2.279,2.277h10.045c1.553,0,2.279-0.725,2.279-2.277V143.265z"/>
<path fill="#F49819" d="M591.189,143.265c0-1.449-0.725-2.277-2.279-2.277h-10.045c-1.553,0-2.279,0.828-2.279,2.277v10.357
	c0,1.553,0.725,2.277,2.279,2.277h10.045c1.553,0,2.279-0.725,2.279-2.277V143.265z"/>
<path fill="#F49819" d="M379.707,108.018c0-1.449-0.725-2.277-2.279-2.277h-10.045c-1.553,0-2.279,0.828-2.279,2.277v10.357
	c0,1.553,0.725,2.277,2.279,2.277h10.045c1.553,0,2.279-0.725,2.279-2.277V108.018z"/>
<path fill="#008682" d="M414.954,108.018c0-1.449-0.725-2.277-2.279-2.277h-10.045c-1.553,0-2.279,0.828-2.279,2.277v10.357
	c0,1.553,0.725,2.277,2.279,2.277h10.045c1.553,0,2.279-0.725,2.279-2.277C414.954,118.375,414.954,108.018,414.954,108.018z"/>
<path fill="#172645" d="M450.201,108.018c0-1.449-0.725-2.277-2.279-2.277h-10.045c-1.553,0-2.279,0.828-2.279,2.277v10.357
	c0,1.553,0.725,2.277,2.279,2.277h10.045c1.553,0,2.279-0.725,2.279-2.277V108.018z"/>
<path fill="#E6292F" d="M485.448,108.018c0-1.449-0.725-2.277-2.279-2.277h-10.045c-1.553,0-2.279,0.828-2.279,2.277v10.357
	c0,1.553,0.725,2.277,2.279,2.277h10.045c1.553,0,2.279-0.725,2.279-2.277V108.018z"/>
<path fill="#008682" d="M520.695,108.018c0-1.449-0.724-2.277-2.279-2.277H508.37c-1.553,0-2.279,0.828-2.279,2.277v10.357
	c0,1.553,0.725,2.277,2.279,2.277h10.045c1.553,0,2.279-0.725,2.279-2.277V108.018z"/>
<path fill="#008682" d="M555.942,108.018c0-1.449-0.725-2.277-2.279-2.277h-10.045c-1.553,0-2.279,0.828-2.279,2.277v10.357
	c0,1.553,0.724,2.277,2.279,2.277h10.045c1.553,0,2.279-0.725,2.279-2.277V108.018z"/>
<path fill="#172645" d="M591.189,108.018c0-1.449-0.725-2.277-2.279-2.277h-10.045c-1.553,0-2.279,0.828-2.279,2.277v10.357
	c0,1.553,0.725,2.277,2.279,2.277h10.045c1.553,0,2.279-0.725,2.279-2.277V108.018z"/>
<path fill="#008682" d="M379.707,72.771c0-1.449-0.725-2.277-2.279-2.277h-10.045c-1.553,0-2.279,0.828-2.279,2.277v10.357
	c0,1.553,0.725,2.277,2.279,2.277h10.045c1.553,0,2.279-0.725,2.279-2.277V72.771z"/>
<path fill="#E6292F" d="M414.954,72.771c0-1.449-0.725-2.277-2.279-2.277h-10.045c-1.553,0-2.279,0.828-2.279,2.277v10.357
	c0,1.553,0.725,2.277,2.279,2.277h10.045c1.553,0,2.279-0.725,2.279-2.277C414.954,83.128,414.954,72.771,414.954,72.771z"/>
<path fill="#008682" d="M450.201,72.771c0-1.449-0.725-2.277-2.279-2.277h-10.045c-1.553,0-2.279,0.828-2.279,2.277v10.357
	c0,1.553,0.725,2.277,2.279,2.277h10.045c1.553,0,2.279-0.725,2.279-2.277V72.771z"/>
<path fill="#F49819" d="M485.448,72.771c0-1.449-0.725-2.277-2.279-2.277h-10.045c-1.553,0-2.279,0.828-2.279,2.277v10.357
	c0,1.553,0.725,2.277,2.279,2.277h10.045c1.553,0,2.279-0.725,2.279-2.277V72.771z"/>
<path fill="#172645" d="M520.695,72.771c0-1.449-0.724-2.277-2.279-2.277H508.37c-1.553,0-2.279,0.828-2.279,2.277v10.357
	c0,1.553,0.725,2.277,2.279,2.277h10.045c1.553,0,2.279-0.725,2.279-2.277V72.771z"/>
<path fill="#E6292F" d="M555.942,72.771c0-1.449-0.725-2.277-2.279-2.277h-10.045c-1.553,0-2.279,0.828-2.279,2.277v10.357
	c0,1.553,0.724,2.277,2.279,2.277h10.045c1.553,0,2.279-0.725,2.279-2.277V72.771z"/>
<path fill="#172645" d="M591.189,72.771c0-1.449-0.725-2.277-2.279-2.277h-10.045c-1.553,0-2.279,0.828-2.279,2.277v10.357
	c0,1.553,0.725,2.277,2.279,2.277h10.045c1.553,0,2.279-0.725,2.279-2.277V72.771z"/>
<path fill="#172645" d="M379.707,37.524c0-1.449-0.725-2.277-2.279-2.277h-10.045c-1.553,0-2.279,0.828-2.279,2.277v10.357
	c0,1.553,0.725,2.277,2.279,2.277h10.045c1.553,0,2.279-0.725,2.279-2.277V37.524z"/>
<path fill="#172645" d="M414.954,37.524c0-1.449-0.725-2.277-2.279-2.277h-10.045c-1.553,0-2.279,0.828-2.279,2.277v10.357
	c0,1.553,0.725,2.277,2.279,2.277h10.045c1.553,0,2.279-0.725,2.279-2.277C414.954,47.881,414.954,37.524,414.954,37.524z"/>
<path fill="#172645" d="M450.201,37.524c0-1.449-0.725-2.277-2.279-2.277h-10.045c-1.553,0-2.279,0.828-2.279,2.277v10.357
	c0,1.553,0.725,2.277,2.279,2.277h10.045c1.553,0,2.279-0.725,2.279-2.277V37.524z"/>
<path fill="#F49819" d="M485.448,37.524c0-1.449-0.725-2.277-2.279-2.277h-10.045c-1.553,0-2.279,0.828-2.279,2.277v10.357
	c0,1.553,0.725,2.277,2.279,2.277h10.045c1.553,0,2.279-0.725,2.279-2.277V37.524z"/>
<path fill="#172645" d="M520.695,37.524c0-1.449-0.724-2.277-2.279-2.277H508.37c-1.553,0-2.279,0.828-2.279,2.277v10.357
	c0,1.553,0.725,2.277,2.279,2.277h10.045c1.553,0,2.279-0.725,2.279-2.277V37.524z"/>
<path fill="#E6292F" d="M555.942,37.524c0-1.449-0.725-2.277-2.279-2.277h-10.045c-1.553,0-2.279,0.828-2.279,2.277v10.357
	c0,1.553,0.724,2.277,2.279,2.277h10.045c1.553,0,2.279-0.725,2.279-2.277V37.524z"/>
<path fill="#F49819" d="M591.189,37.524c0-1.449-0.725-2.277-2.279-2.277h-10.045c-1.553,0-2.279,0.828-2.279,2.277v10.357
	c0,1.553,0.725,2.277,2.279,2.277h10.045c1.553,0,2.279-0.725,2.279-2.277V37.524z"/>
<path fill="#172645" d="M379.707,2.277c0-1.449-0.727-2.277-2.279-2.277h-10.045c-1.553,0-2.279,0.828-2.279,2.277v10.357
	c0,1.553,0.725,2.277,2.279,2.277h10.045c1.553,0,2.279-0.725,2.279-2.277V2.277z"/>
<path fill="#F49819" d="M414.954,2.277c0-1.449-0.725-2.277-2.279-2.277h-10.045c-1.553,0-2.279,0.828-2.279,2.277v10.357
	c0,1.553,0.725,2.277,2.279,2.277h10.045c1.553,0,2.279-0.725,2.279-2.277C414.954,12.634,414.954,2.277,414.954,2.277z"/>
<path fill="#008682" d="M450.201,2.277c0-1.449-0.725-2.277-2.279-2.277h-10.045c-1.553,0-2.279,0.828-2.279,2.277v10.357
	c0,1.553,0.725,2.277,2.279,2.277h10.045c1.553,0,2.279-0.725,2.279-2.277V2.277z"/>
<path fill="#E6292F" d="M485.448,2.277c0-1.449-0.725-2.277-2.279-2.277h-10.045c-1.553,0-2.279,0.828-2.279,2.277v10.357
	c0,1.553,0.725,2.277,2.279,2.277h10.045c1.553,0,2.279-0.725,2.279-2.277V2.277z"/>
<path fill="#008682" d="M520.695,2.277c0-1.449-0.724-2.277-2.279-2.277H508.37c-1.553,0-2.279,0.828-2.279,2.277v10.357
	c0,1.553,0.725,2.277,2.279,2.277h10.045c1.553,0,2.279-0.725,2.279-2.277V2.277z"/>
<path fill="#172645" d="M555.942,2.277c0-1.449-0.725-2.277-2.279-2.277h-10.045c-1.553,0-2.279,0.828-2.279,2.277v10.357
	c0,1.553,0.724,2.277,2.279,2.277h10.045c1.553,0,2.279-0.725,2.279-2.277V2.277z"/>
<path fill="#E6292F" d="M591.189,2.277c0-1.449-0.725-2.277-2.279-2.277h-10.045c-1.553,0-2.279,0.828-2.279,2.277v10.357
	c0,1.553,0.725,2.277,2.279,2.277h10.045c1.553,0,2.279-0.725,2.279-2.277V2.277z"/>
<path fill="#008682" d="M365.291,351.751v-36.847h2.567v34.092h9.587v2.757h-12.154V351.751z"/>
<path fill="#008682" d="M391.528,348.585h-0.08c-1.285,2.452-3.249,3.675-5.737,3.675c-3.611,0-5.577-3.112-5.577-7.604
	c0-9.033,7.141-8.115,11.234-8.524v-2.144c0-3.775-0.883-6.072-4.093-6.072c-2.207,0-3.971,1.379-3.971,4.441h-2.569
	c0.202-4.95,3.209-6.889,6.74-6.889c2.046,0,6.299,0.255,6.299,6.838v12.963c0,1.837,0,3.47,0.241,6.482h-2.487V348.585z
	 M391.368,338.584c-3.45,0.153-8.665-0.358-8.665,5.92c0,2.91,1.163,5.307,3.652,5.307c2.769,0,5.015-3.162,5.015-6.532v-4.694
	H391.368z"/>
<path fill="#008682" d="M399.108,351.751c0.121-0.867,0.241-1.684,0.241-2.551v-34.295h2.407v13.983l0.08,0.102
	c1.243-2.45,2.849-3.521,5.136-3.521c6.579,0,6.059,8.778,6.059,13.37c0,5.665-0.36,13.421-6.258,13.421
	c-2.367,0-4.093-1.224-5.095-3.623h-0.08v3.113L399.108,351.751L399.108,351.751z M406.05,349.811c4.453,0,4.572-4.848,4.572-10.87
	c0-6.023-0.121-11.024-4.572-11.024c-3.893,0-4.375,6.685-4.375,10.564C401.675,342.565,401.675,349.811,406.05,349.811z"/>
<path fill="#008682" d="M416.961,341.647v-5.563c0-6.687,2.246-10.615,6.981-10.615c4.733,0,6.981,3.928,6.981,10.615v5.563
	c0,6.685-2.246,10.613-6.981,10.613C419.207,352.26,416.961,348.332,416.961,341.647z M419.367,338.839
	c0,6.736,0.601,10.974,4.574,10.974c3.971,0,4.572-4.236,4.572-10.974c0-6.685-0.601-10.921-4.572-10.921
	C419.969,327.916,419.367,332.154,419.367,338.839z"/>
<path fill="#008682" d="M438.262,329.448h0.08c1.003-2.45,3.129-3.981,5.577-3.981v3.113c-3.409-0.358-5.657,2.244-5.657,6.581
	v16.588h-2.407v-25.773h2.407V329.448z"/>
<path fill="#008682" d="M457.72,348.585h-0.08c-1.285,2.452-3.249,3.675-5.737,3.675c-3.611,0-5.577-3.112-5.577-7.604
	c0-9.033,7.141-8.115,11.234-8.524v-2.144c0-3.775-0.883-6.072-4.093-6.072c-2.207,0-3.971,1.379-3.971,4.441h-2.567
	c0.2-4.95,3.209-6.889,6.74-6.889c2.046,0,6.299,0.255,6.299,6.838v12.963c0,1.837,0,3.47,0.241,6.482h-2.487v-3.166H457.72z
	 M457.561,338.584c-3.45,0.153-8.665-0.358-8.665,5.92c0,2.91,1.163,5.307,3.65,5.307c2.769,0,5.015-3.162,5.015-6.532V338.584z"/>
<path fill="#008682" d="M463.657,328.427v-2.45h3.249v-5.307l2.407-1.328v6.634h4.093v2.45h-4.093v16.535
	c0,3.421,0.282,4.236,2.207,4.236c0.803,0,1.365-0.049,1.886-0.153v2.653c-0.723,0.104-1.525,0.153-2.287,0.153
	c-3.249,0-4.212-1.837-4.212-4.999v-18.426h-3.249V328.427z"/>
<path fill="#008682" d="M476.495,341.647v-5.563c0-6.687,2.246-10.615,6.981-10.615s6.981,3.928,6.981,10.615v5.563
	c0,6.685-2.246,10.613-6.981,10.613S476.495,348.332,476.495,341.647z M478.901,338.839c0,6.736,0.601,10.974,4.572,10.974
	s4.574-4.236,4.574-10.974c0-6.685-0.601-10.921-4.574-10.921C479.505,327.916,478.901,332.154,478.901,338.839z"/>
<path fill="#008682" d="M495.751,318.783v-3.879h2.969v3.879H495.751z M496.031,351.751v-25.773h2.407v25.773H496.031z"/>
<path fill="#008682" d="M507.103,329.448h0.08c1.003-2.45,3.129-3.981,5.577-3.981v3.113c-3.409-0.358-5.657,2.244-5.657,6.581
	v16.588h-2.407v-25.773h2.407V329.448z"/>
<path fill="#008682" d="M517.975,339.503v1.99c0,3.574,0.762,8.32,4.572,8.32c3.01,0,4.494-2.45,4.453-5.92h2.53
	c-0.282,6.225-2.929,8.369-6.981,8.369c-3.489,0-6.981-1.786-6.981-9.595v-6.329c0-7.451,2.448-10.87,6.981-10.87
	c6.981,0,6.981,6.38,6.981,14.034L517.975,339.503L517.975,339.503z M527.123,337.051c0-5.716-0.723-9.135-4.574-9.135
	c-3.852,0-4.572,3.419-4.572,9.135H527.123z"/>
<path fill="#008682" d="M554.242,348.485l-0.08,0.051c-1.243,2.45-2.769,3.724-5.134,3.724c-5.857,0-6.178-7.4-6.178-13.421
	c0-4.95,0-13.37,6.219-13.37c1.847,0,3.652,1.071,4.895,3.063l0.08,0.051v-13.678h2.407v31.744c0,2.551,0.121,4.236,0.241,5.103
	h-2.328L554.242,348.485z M554.12,341.187v-4.594c0-1.531,0-8.677-4.533-8.677c-4.331,0-4.331,5.001-4.331,11.024
	c0,9.595,1.805,10.87,4.414,10.87C551.955,349.811,554.12,347.463,554.12,341.187z"/>
<path fill="#008682" d="M563.708,339.503v1.99c0,3.574,0.762,8.32,4.574,8.32c3.008,0,4.494-2.45,4.453-5.92h2.528
	c-0.282,6.225-2.929,8.369-6.981,8.369c-3.491,0-6.981-1.786-6.981-9.595v-6.329c0-7.451,2.448-10.87,6.981-10.87
	c6.981,0,6.981,6.38,6.981,14.034L563.708,339.503L563.708,339.503z M572.856,337.051c0-5.716-0.723-9.135-4.572-9.135
	c-3.852,0-4.574,3.419-4.574,9.135H572.856z"/>
<path fill="#008682" d="M365.451,404.721v-36.847h4.373l8.545,33.275h0.08l8.424-33.275h4.093v36.847h-2.567v-33.684h-0.08
	l-8.506,33.684h-2.969l-8.745-33.684h-0.08v33.684L365.451,404.721L365.451,404.721z"/>
<path fill="#008682" d="M407.133,401.557h-0.08c-1.285,2.452-3.249,3.675-5.737,3.675c-3.611,0-5.577-3.112-5.577-7.604
	c0-9.033,7.141-8.115,11.234-8.524v-2.144c0-3.775-0.883-6.072-4.093-6.072c-2.207,0-3.971,1.379-3.971,4.441h-2.567
	c0.2-4.95,3.209-6.889,6.74-6.889c2.046,0,6.299,0.255,6.299,6.838v12.963c0,1.837,0,3.47,0.241,6.482h-2.487v-3.166H407.133z
	 M406.974,391.555c-3.45,0.153-8.665-0.358-8.665,5.92c0,2.91,1.163,5.307,3.65,5.307c2.769,0,5.015-3.162,5.015-6.532V391.555z"/>
<path fill="#008682" d="M413.07,381.398v-2.45h3.249v-5.307l2.407-1.328v6.634h4.093v2.45h-4.093v16.535
	c0,3.421,0.282,4.236,2.207,4.236c0.803,0,1.363-0.049,1.886-0.153v2.653c-0.723,0.104-1.525,0.153-2.287,0.153
	c-3.251,0-4.214-1.837-4.214-4.999v-18.426h-3.247V381.398z"/>
<path fill="#008682" d="M426.428,404.721v-36.847h2.407v14.24h0.08c1.163-2.144,2.728-3.675,4.893-3.675
	c5.015,0,5.538,4.747,5.538,8.115v18.168h-2.407v-18.015c0-3.012-0.922-5.818-3.732-5.818c-2.166,0-4.373,1.888-4.373,7.654v16.178
	H426.428z"/>
<path fill="#008682" d="M446.529,392.473v1.99c0,3.574,0.762,8.32,4.572,8.32c3.01,0,4.494-2.45,4.453-5.919h2.528
	c-0.282,6.225-2.929,8.369-6.981,8.369c-3.489,0-6.981-1.786-6.981-9.595v-6.329c0-7.451,2.448-10.87,6.981-10.87
	c6.981,0,6.981,6.38,6.981,14.034L446.529,392.473L446.529,392.473z M455.676,390.023c0-5.716-0.723-9.135-4.574-9.135
	c-3.852,0-4.572,3.419-4.572,9.135H455.676z M453.067,369.149h3.209l-5.737,6.993h-2.007L453.067,369.149z"/>
<path fill="#008682" d="M465.222,404.721h-2.407v-25.824h2.168v3.217h0.08c0.963-2.091,2.567-3.675,4.815-3.675
	c2.085,0,3.932,1.48,4.613,4.032c1.003-2.551,2.728-4.032,4.976-4.032c3.37,0,5.136,2.959,5.256,7.094v19.19h-2.407v-18.424
	c-0.041-2.551-0.762-5.41-3.129-5.41c-3.049,0-4.212,3.879-4.212,7.247v16.588h-2.407v-18.424c-0.041-2.551-0.762-5.41-3.129-5.41
	c-3.049,0-4.212,3.879-4.212,7.247v16.586H465.222z"/>
<path fill="#008682" d="M500.486,401.557h-0.08c-1.285,2.452-3.249,3.675-5.737,3.675c-3.611,0-5.577-3.112-5.577-7.604
	c0-9.033,7.141-8.115,11.234-8.524v-2.144c0-3.775-0.883-6.072-4.093-6.072c-2.207,0-3.971,1.379-3.971,4.441h-2.567
	c0.2-4.95,3.209-6.889,6.74-6.889c2.046,0,6.299,0.255,6.299,6.838v12.963c0,1.837,0,3.47,0.241,6.482h-2.487v-3.166H500.486z
	 M500.326,391.555c-3.45,0.153-8.665-0.358-8.665,5.92c0,2.91,1.163,5.307,3.65,5.307c2.769,0,5.015-3.162,5.015-6.532V391.555
	L500.326,391.555z"/>
<path fill="#008682" d="M506.422,381.398v-2.45h3.249v-5.307l2.407-1.328v6.634h4.093v2.45h-4.093v16.535
	c0,3.421,0.282,4.236,2.207,4.236c0.803,0,1.365-0.049,1.886-0.153v2.653c-0.723,0.104-1.525,0.153-2.287,0.153
	c-3.249,0-4.212-1.837-4.212-4.999v-18.426h-3.249V381.398z"/>
<path fill="#008682" d="M520.303,371.754v-3.879h2.969v3.879H520.303z M520.585,404.721v-25.773h2.407v25.773H520.585z"/>
<path fill="#008682" d="M542.168,378.948c-0.121,0.869-0.241,1.684-0.241,2.551v32.968h-2.407V401.81l-0.08-0.102
	c-1.243,2.45-2.849,3.521-5.134,3.521c-6.579,0-6.059-8.778-6.059-13.37c0-5.665,0.36-13.421,6.258-13.421
	c2.367,0,4.093,1.224,5.095,3.828h0.08v-3.317L542.168,378.948L542.168,378.948z M539.601,391.913
	c0-6.023-0.121-11.024-4.574-11.024c-3.891,0-4.373,6.685-4.373,10.564c0,4.083,0,11.33,4.373,11.33
	C539.479,402.783,539.601,397.934,539.601,391.913z"/>
<path fill="#008682" d="M560.06,378.948v25.773h-2.085v-2.857h-0.08c-1.404,2.193-2.847,3.368-5.095,3.368
	c-4.173,0-5.336-3.877-5.336-8.064V378.95h2.407v17.71c0,0.715-0.121,6.123,3.37,6.123c3.249,0,4.414-3.879,4.414-5.665v-18.17
	H560.06z"/>
<path fill="#008682" d="M567.401,392.473v1.99c0,3.574,0.762,8.32,4.574,8.32c3.008,0,4.494-2.45,4.453-5.919h2.528
	c-0.282,6.225-2.929,8.369-6.981,8.369c-3.491,0-6.981-1.786-6.981-9.595v-6.329c0-7.451,2.448-10.87,6.981-10.87
	c6.981,0,6.981,6.38,6.981,14.034L567.401,392.473L567.401,392.473z M576.547,390.023c0-5.716-0.723-9.135-4.572-9.135
	c-3.852,0-4.574,3.419-4.574,9.135H576.547z"/>
<path fill="#008682" d="M589.103,405.233c-4.373,0-6.098-2.704-6.059-8.166h2.448c0,3.523,0.642,5.869,3.732,5.869
	c2.326,0,3.45-1.684,3.45-4.541c0-6.736-9.107-5.001-9.107-13.525c0-4.747,2.567-6.429,6.098-6.429c4.012,0,5.295,3.521,5.295,7.451
	h-2.367c-0.119-3.266-0.801-5.001-3.531-5.001c-1.725,0-3.088,1.429-3.088,3.726c0,6.429,9.107,4.694,9.107,13.319
	C595.081,402.783,592.875,405.233,589.103,405.233z"/>
<path fill="#008682" d="M366.936,448.806v1.99c0,3.574,0.762,8.32,4.574,8.32c3.008,0,4.494-2.45,4.453-5.92h2.528
	c-0.282,6.225-2.929,8.369-6.981,8.369c-3.491,0-6.981-1.786-6.981-9.595v-6.329c0-7.451,2.448-10.87,6.981-10.87
	c6.981,0,6.981,6.38,6.981,14.034L366.936,448.806L366.936,448.806z M376.082,446.354c0-5.716-0.723-9.135-4.572-9.135
	c-3.85,0-4.574,3.419-4.574,9.135H376.082z"/>
<path fill="#008682" d="M381.457,437.728v-2.45h3.249v-5.307l2.407-1.328v6.634h4.093v2.45h-4.093v16.535
	c0,3.421,0.282,4.236,2.207,4.236c0.803,0,1.365-0.049,1.886-0.153v2.653c-0.723,0.104-1.525,0.153-2.287,0.153
	c-3.249,0-4.212-1.837-4.212-4.999v-18.426h-3.249V437.728z"/>
<path fill="#008682" d="M404.524,461.052v-36.847h4.373l8.545,33.275h0.08l8.424-33.275h4.093v36.847h-2.567V427.37h-0.08
	l-8.506,33.684h-2.969l-8.747-33.684h-0.08v33.684h-2.565V461.052z"/>
<path fill="#008682" d="M435.215,450.948v-5.563c0-6.687,2.246-10.615,6.981-10.615c4.733,0,6.981,3.928,6.981,10.615v5.563
	c0,6.685-2.246,10.613-6.981,10.613C437.461,461.563,435.215,457.633,435.215,450.948z M437.621,448.14
	c0,6.736,0.601,10.974,4.574,10.974c3.971,0,4.572-4.236,4.572-10.974c0-6.685-0.601-10.921-4.572-10.921
	S437.621,441.455,437.621,448.14z"/>
<path fill="#008682" d="M464.581,457.786l-0.08,0.051c-1.243,2.45-2.769,3.724-5.136,3.724c-5.857,0-6.178-7.4-6.178-13.421
	c0-4.95,0-13.37,6.219-13.37c1.847,0,3.652,1.071,4.895,3.063l0.08,0.051v-13.678h2.407v31.744c0,2.55,0.121,4.236,0.241,5.103
	h-2.328L464.581,457.786z M464.462,450.488v-4.594c0-1.531,0-8.677-4.533-8.677c-4.331,0-4.331,5.001-4.331,11.024
	c0,9.595,1.805,10.87,4.414,10.87C462.294,459.113,464.462,456.766,464.462,450.488z"/>
<path fill="#008682" d="M474.047,448.806v1.99c0,3.574,0.762,8.32,4.572,8.32c3.01,0,4.494-2.45,4.453-5.92h2.528
	c-0.282,6.225-2.929,8.369-6.981,8.369c-3.489,0-6.981-1.786-6.981-9.595v-6.329c0-7.451,2.448-10.87,6.981-10.87
	c6.981,0,6.981,6.38,6.981,14.034L474.047,448.806L474.047,448.806z M483.194,446.354c0-5.716-0.723-9.135-4.574-9.135
	c-3.852,0-4.572,3.419-4.572,9.135H483.194z M480.587,425.48h3.209l-5.737,6.993h-2.007L480.587,425.48z"/>
<path fill="#008682" d="M491.177,461.052v-36.847h2.407v36.847H491.177z"/>
<path fill="#008682" d="M500.202,428.084v-3.879h2.969v3.879H500.202z M500.484,461.052v-25.773h2.407v25.773H500.484z"/>
<path fill="#008682" d="M514.366,461.563c-4.375,0-6.098-2.704-6.059-8.166h2.448c0,3.523,0.642,5.869,3.73,5.869
	c2.328,0,3.45-1.684,3.45-4.541c0-6.736-9.107-5.001-9.107-13.525c0-4.747,2.567-6.429,6.098-6.429c4.012,0,5.295,3.521,5.295,7.451
	h-2.367c-0.121-3.266-0.803-5.001-3.531-5.001c-1.725,0-3.09,1.429-3.09,3.726c0,6.429,9.107,4.694,9.107,13.319
	C520.342,459.113,518.135,461.563,514.366,461.563z"/>
<path fill="#008682" d="M535.467,457.888h-0.08c-1.285,2.452-3.249,3.675-5.737,3.675c-3.611,0-5.577-3.112-5.577-7.604
	c0-9.033,7.141-8.115,11.234-8.524v-2.144c0-3.775-0.883-6.072-4.093-6.072c-2.207,0-3.971,1.379-3.971,4.441h-2.569
	c0.202-4.95,3.209-6.889,6.74-6.889c2.046,0,6.299,0.255,6.299,6.838v12.963c0,1.837,0,3.47,0.241,6.482h-2.487V457.888
	L535.467,457.888z M535.304,447.887c-3.45,0.153-8.665-0.358-8.665,5.92c0,2.91,1.163,5.307,3.652,5.307
	c2.769,0,5.015-3.162,5.015-6.532v-4.694H535.304z"/>
<path fill="#008682" d="M541.402,437.728v-2.45h3.249v-5.307l2.407-1.328v6.634h4.093v2.45h-4.093v16.535
	c0,3.421,0.282,4.236,2.207,4.236c0.803,0,1.363-0.049,1.886-0.153v2.653c-0.723,0.104-1.525,0.153-2.287,0.153
	c-3.251,0-4.214-1.837-4.214-4.999v-18.426h-3.247V437.728z"/>
<path fill="#008682" d="M555.284,428.084v-3.879h2.969v3.879H555.284z M555.566,461.052v-25.773h2.407v25.773H555.566z"/>
<path fill="#008682" d="M563.547,450.948v-5.563c0-6.687,2.246-10.615,6.981-10.615c4.733,0,6.981,3.928,6.981,10.615v5.563
	c0,6.685-2.246,10.613-6.981,10.613C565.795,461.563,563.547,457.633,563.547,450.948z M565.956,448.14
	c0,6.736,0.601,10.974,4.574,10.974c3.971,0,4.572-4.236,4.572-10.974c0-6.685-0.601-10.921-4.572-10.921
	C566.557,437.219,565.956,441.455,565.956,448.14z"/>
<path fill="#008682" d="M584.689,461.052h-2.407v-25.773h2.407v3.164h0.08c1.163-2.144,2.728-3.675,4.893-3.675
	c5.015,0,5.538,4.747,5.538,8.115v18.168h-2.407v-18.015c0-3.012-0.922-5.818-3.732-5.818c-2.166,0-4.373,1.888-4.373,7.654V461.052
	L584.689,461.052z"/>
<path fill="#008682" d="M375.681,514.678l-0.08,0.051c-1.243,2.45-2.769,3.724-5.136,3.724c-5.857,0-6.178-7.4-6.178-13.421
	c0-4.95,0-13.37,6.219-13.37c1.847,0,3.652,1.071,4.895,3.063l0.08,0.051v-13.678h2.407v31.744c0,2.55,0.121,4.236,0.241,5.103
	h-2.326L375.681,514.678z M375.561,507.38v-4.594c0-1.531,0-8.677-4.533-8.677c-4.331,0-4.331,5.001-4.331,11.024
	c0,9.595,1.805,10.87,4.414,10.87C373.394,516.006,375.561,513.658,375.561,507.38z"/>
<path fill="#008682" d="M384.586,481.098h2.929l-2.407,9.237h-2.127L384.586,481.098z"/>
<path fill="#008682" d="M406.25,481.098v2.755h-10.553v13.782h10.069v2.755h-10.069v14.8h10.833v2.757h-13.4V481.1h13.12V481.098z
	 M400.994,471.299h3.209l-5.737,6.991h-2.007L400.994,471.299z"/>
<path fill="#008682" d="M416.199,514.065h0.08l4.935-21.894h2.328l-6.019,25.773h-2.769l-6.017-25.773h2.608L416.199,514.065z"/>
<path fill="#008682" d="M429.356,495.643h0.08c1.003-2.45,3.129-3.981,5.577-3.981v3.113c-3.411-0.358-5.657,2.244-5.657,6.581
	v16.588h-2.407v-25.773h2.407V495.643z"/>
<path fill="#008682" d="M442.717,517.995l-6.419-25.824h2.608l4.935,21.129h0.08l4.774-21.129h2.407l-8.385,35.521h-2.367
	L442.717,517.995z"/>
</svg>
